<?xml version="1.0" encoding="UTF-8" standalone="no"?>
<svg
   id="Layer_1"
   version="1.1"
   viewBox="0 0 474.6 99.999995"
   sodipodi:docname="huira_long.svg"
   inkscape:version="1.4.3 (0d15f75, 2025-12-25)"
   xml:space="preserve"
   width="474.60001"
   height="100"
   inkscape:export-filename="..\png\huira_long.png"
   inkscape:export-xdpi="96"
   inkscape:export-ydpi="96"
   xmlns:inkscape="http://www.inkscape.org/namespaces/inkscape"
   xmlns:sodipodi="http://sodipodi.sourceforge.net/DTD/sodipodi-0.dtd"
   xmlns="http://www.w3.org/2000/svg"
   xmlns:svg="http://www.w3.org/2000/svg"><sodipodi:namedview
     id="namedview18"
     pagecolor="#ffffff"
     bordercolor="#000000"
     borderopacity="0.25"
     inkscape:showpageshadow="2"
     inkscape:pageopacity="0.0"
     inkscape:pagecheckerboard="0"
     inkscape:deskcolor="#d1d1d1"
     inkscape:zoom="2.191885"
     inkscape:cx="237.23872"
     inkscape:cy="63.643849"
     inkscape:window-width="1902"
     inkscape:window-height="1153"
     inkscape:window-x="0"
     inkscape:window-y="0"
     inkscape:window-maximized="0"
     inkscape:current-layer="g5" /><!-- Generator: Adobe Illustrator 30.1.0, SVG Export Plug-In . SVG Version: 2.1.1 Build 136)  --><defs
     id="defs1"><style
       id="style1">
      .st0 {
        fill: #f15a24;
      }
    </style></defs><g
     id="g5"
     style="fill:#0a2360;fill-opacity:1"
     transform="matrix(0.90370591,0,0,0.90370591,88.458121,-27.074649)"><path
       d="M 67.046041,114.41361 V 56.957289 c 0,-5.681188 -0.644427,-7.394023 -2.255515,-8.462426 l 0.101747,-0.322217 h 17.90846 l 0.101748,0.322217 c -1.611078,1.068403 -2.255515,2.781238 -2.255515,8.462426 V 79.139361 H 101.76064 V 56.957289 c 0,-5.681188 -0.64445,-7.394023 -2.255525,-8.462426 l 0.101747,-0.322217 h 17.908458 l 0.10175,0.322217 c -1.61108,1.068403 -2.25553,2.781238 -2.25553,8.462426 v 57.456321 c 0,5.68119 0.64445,7.49577 2.25553,8.58113 l -0.10175,0.22047 H 99.606862 l -0.101747,-0.22047 c 1.611075,-1.0684 2.255525,-2.89994 2.255525,-8.58113 V 91.264884 H 80.646966 v 23.148726 c 0,5.68119 0.644437,7.39401 2.255515,8.46242 l -0.101748,0.32222 h -17.90846 l -0.101747,-0.32222 c 1.611088,-1.06841 2.255515,-2.78123 2.255515,-8.46242 z"
       id="path1"
       style="fill:#0a2360;fill-opacity:1;stroke-width:1.69587" /><path
       d="M 149.68378,101.55037 V 56.965762 c 0,-5.681188 -0.64443,-7.394023 -2.25552,-8.462427 L 147.53,48.181117 h 18.33243 l 0.10175,0.322218 c -1.71283,1.068404 -2.35726,2.781239 -2.35726,8.462427 v 44.923778 c 0,7.49578 3.22216,10.93841 10.17525,10.93841 6.9531,0 10.29399,-3.42567 10.29399,-10.93841 V 56.965762 c 0,-5.681188 -0.64443,-7.394023 -2.25553,-8.462427 l 0.10175,-0.322218 h 17.14531 l 0.10175,0.322218 c -1.61108,1.068404 -2.25551,2.781239 -2.25551,8.462427 v 44.584608 c 0,15.11026 -8.14021,22.72475 -23.14873,22.72475 -15.00851,0 -24.11536,-7.49578 -24.11536,-22.72475 z"
       id="path2"
       style="fill:#0a2360;fill-opacity:1;stroke-width:1.69587" /><path
       d="M 231.33791,114.42209 V 56.96576 c 0,-5.681188 -0.64446,-7.394023 -2.35728,-8.462426 l 0.10174,-0.322217 h 18.01023 l 0.10175,0.322217 c -1.61108,1.068403 -2.25551,2.781238 -2.25551,8.462426 v 57.45633 c 0,5.68119 0.64443,7.39404 2.25551,8.46243 l -0.10175,0.32222 h -18.01023 l -0.10174,-0.32222 c 1.71282,-1.06839 2.35728,-2.78124 2.35728,-8.46243 z"
       id="path3"
       style="fill:#0a2360;fill-opacity:1;stroke-width:1.69587" /><path
       d="M 279.26103,114.4136 V 56.957289 c 0,-5.681188 -0.64443,-7.394024 -2.25551,-8.462426 l 0.10175,-0.322217 h 23.36917 c 17.78974,0 26.37089,7.292271 26.37089,21.537635 0,9.649542 -4.39233,16.076915 -12.97346,18.976863 v 0.220472 c 6.54608,2.255508 9.32732,6.86829 9.97176,13.295664 l 1.71282,14.04187 c 0.5427,4.49408 1.18712,5.90166 2.45903,6.74959 l -0.10174,0.22047 h -15.7547 l -1.8146,-18.97686 c -0.64443,-6.970064 -3.96835,-9.64955 -9.32732,-9.64955 h -8.14021 v 19.8248 c 0,5.68119 0.64443,7.39403 2.25552,8.46243 l -0.10176,0.32222 h -17.90845 l -0.10175,-0.32222 c 1.61108,-1.0684 2.25553,-2.78124 2.25553,-8.46243 z m 21.31718,-30.76321 c 8.58114,0 12.43078,-4.171855 12.43078,-12.549487 0,-8.377632 -3.96836,-11.905057 -12.753,-11.905057 h -7.39403 v 24.437586 h 7.71625 z"
       id="path4"
       style="fill:#0a2360;fill-opacity:1;stroke-width:1.69587" /><path
       d="m 360.79646,116.35539 14.90675,-61.322928 c 0.96664,-4.392321 0.64442,-5.78294 -0.64443,-6.546085 l 0.10174,-0.322216 h 22.623 l 0.10175,0.322216 c -1.18712,0.746186 -1.61109,2.136805 -0.54269,6.546085 l 15.00851,61.322928 c 1.06841,4.39232 1.71284,5.78294 2.89995,6.54608 l -0.10175,0.32222 h -16.72135 l -0.10175,-0.32222 c 1.28887,-0.74619 1.61108,-2.1368 0.64444,-6.54608 l -1.93331,-8.6829 h -21.43588 l -1.81459,8.6829 c -0.96664,4.39232 -0.64443,5.78294 0.64444,6.54608 l -0.10174,0.32222 h -16.39913 l -0.10175,-0.32222 c 1.28887,-0.74619 1.9333,-2.1368 3.00171,-6.54608 z m 33.88361,-20.147026 -8.46242,-39.022138 -8.36069,39.022138 z"
       id="path5"
       style="fill:#0a2360;fill-opacity:1;stroke-width:1.69587" /></g><g
     id="g10"
     style="fill:#0a2360;fill-opacity:1"
     transform="matrix(0.29464675,0,0,0.60013492,-12.363525,-32.657326)"><polygon
       points="298.36,154.91 268.34,172.17 265.27,173.93 265.22,173.96 264.98,174.1 264.89,174.09 264.65,174.05 262.32,173.76 220.46,168.57 217.78,168.24 217.34,168.19 216.97,168.25 214.68,168.64 180.42,174.53 146.85,180.23 144.08,180.7 144.01,180.71 143.35,180.82 143.17,180.85 143.14,180.84 143,180.79 104.83,168.04 104.11,167.8 104.07,167.82 103.43,168.11 100.99,169.23 48.95,192.97 103.86,166.79 104.04,166.7 104.24,166.77 143.29,179.38 180.13,172.84 216.73,166.43 217.17,166.35 217.3,166.32 217.44,166.34 217.85,166.39 264.57,172.03 297.63,153.17 297.82,153.06 298.04,153.04 361.29,149.01 361.49,149 361.67,149.08 398.18,164.95 423.21,159.72 423.38,159.68 423.53,159.76 474.6,184.68 423.26,160.72 399.41,165.95 398.23,166.21 398.04,166.25 398,166.23 397.99,166.23 397.85,166.17 396.48,165.59 361.21,150.66 360.04,150.74 359.94,150.75 299.54,154.83 299.31,154.84 "
       id="polygon5"
       style="fill:#0a2360;fill-opacity:1" /><path
       d="m 445.59,204.36 -46.18,-38.41 -0.95,-0.79 -0.18,-0.15 -0.07,-0.05 -0.11,0.04 -0.19,0.07 -1.43,0.52 -42.52,15.53 -2.52,0.92 -16.92,6.18 -59.53,21.89 h -0.01 l -1.09,0.41 c 0,0 -0.02,-0.01 -0.02,0.01 h -0.01 l -2.19,0.8 -26.71,-22.31 -1.51,-1.26 -22.99,-19.19 -2.49,-2.08 -0.12,-0.1 -0.61,-0.51 -0.51,0.55 -0.13,0.14 -1.92,2.07 -17.99,19.41 -0.15,0.16 -2.13,1.17 -34.3,18.93 -0.41,-0.06 h -0.04 l -34.84,-4.83 h -0.09 c 0,0 -0.09,0 -0.09,0 l -0.4,0.03 -19.41,-35.4 -0.51,-0.92 -0.15,-0.28 -0.26,0.19 -2.92,2.2 -24.78,18.62 -27.65,20.9 -1.67,1.27 2.1,-0.13 75.64,-4.74 35.52,5.01 0.3,0.04 0.26,-0.14 36.39,-19.96 0.5,-0.27 0.13,-0.08 0.11,-0.11 0.6,-0.64 18.98,-20.37 24.77,20.58 1.51,1.25 27.21,22.61 0.41,0.34 0.49,-0.18 63.27,-23.49 18.45,-6.89 2.05,-0.77 42.41,-15.85 H 398 l 47.1,38.27 0.06,0.04 v 0 c 0,0 0.24,0.21 0.24,0.21 l 0.09,0.07 0.1,-0.04 29,-10.09 -29.01,9.67 z M 51,208.48 l 25.82,-19.82 26.61,-20.55 0.49,-0.37 0.07,-0.06 0.03,0.05 0.03,0.05 0.02,0.04 20.15,35.62 z"
       id="path6"
       style="fill:#0a2360;fill-opacity:1" /><path
       d="m 361.35,149.83 -1.31,0.91 -15.62,10.85 -15.97,11.02 -0.64,0.44 -0.06,0.04 -0.29,0.2 -0.13,0.09 h -0.66 c 0,0 -0.33,0.01 -0.33,0.01 l -1.56,0.02 -28.81,0.31 c -10.25,0.14 -20.5,0.17 -30.75,0.24 h -0.16 l -0.17,0.13 -19.93,14.93 -0.8,0.6 -0.46,0.84 -7,12.87 -7.63,13.85 -0.59,1.06 -0.89,-0.8 -30.49,-27.34 -0.35,-0.31 -2.34,-0.41 -50.32,-8.66 c 5.21,9.18 10.45,18.33 15.61,27.53 0.19,0.34 0.38,0.67 0.57,1.01 -0.2,-0.34 -0.41,-0.67 -0.61,-1.01 -5.55,-9.11 -11.01,-18.27 -16.52,-27.41 -0.1,-0.17 -0.2,-0.33 -0.3,-0.5 l -0.5,-0.82 0.96,0.15 3.55,0.56 49.84,7.82 0.58,0.09 0.25,0.04 0.18,0.16 0.74,0.66 29.51,26.21 6.99,-12.84 7.25,-13.16 0.38,-0.69 0.1,-0.19 0.17,-0.12 0.61,-0.45 18.87,-14 1.91,-1.42 0.24,-0.17 h 3.87 c 9.2,-0.02 18.41,-0.03 27.62,0.02 l 28.78,0.13 h 1.6 c 0,0 0.67,0.01 0.67,0.01 l 0.49,-0.32 16.59,-10.91 15.85,-10.35 z"
       id="path7"
       style="fill:#0a2360;fill-opacity:1" /><path
       d="m 328.76,172.8 -0.51,0.37 -0.11,0.08 -0.46,0.34 c -4.59,3.36 -9.23,6.64 -13.86,9.96 -4.65,3.27 -9.29,6.57 -13.97,9.79 -4.67,3.25 -9.37,6.46 -14.09,9.64 -2.36,1.59 -4.73,3.16 -7.11,4.72 -1.22,0.8 -2.44,1.61 -3.66,2.41 h -0.01 c -1.15,0.76 -2.31,1.52 -3.48,2.26 0.78,-0.62 1.57,-1.23 2.36,-1.84 h 0.01 c 0,0 0.01,-0.02 0.02,-0.01 1.45,-1.14 2.91,-2.25 4.37,-3.37 2.26,-1.73 4.52,-3.45 6.81,-5.15 4.55,-3.4 9.13,-6.78 13.74,-10.12 4.59,-3.36 9.23,-6.65 13.86,-9.96 4.03,-2.84 8.05,-5.7 12.11,-8.51 0.26,-0.18 0.52,-0.36 0.78,-0.54 -0.28,-0.18 -0.55,-0.36 -0.82,-0.55 -4.17,-2.76 -8.31,-5.57 -12.44,-8.39 -2.39,-1.63 -4.76,-3.28 -7.12,-4.94 -1.96,-1.38 -3.93,-2.74 -5.87,-4.15 -0.41,-0.28 -0.81,-0.57 -1.21,-0.86 0.48,0.28 0.96,0.56 1.44,0.85 2.01,1.18 4.01,2.38 6.01,3.58 2.48,1.48 4.95,2.98 7.41,4.5 4.87,3 9.72,6.03 14.54,9.1 0.05,0.03 0.1,0.06 0.15,0.09 l 0.8,0.51 z"
       id="path8"
       style="fill:#0a2360;fill-opacity:1" /><path
       d="m 407.08,216.72 c -2.31,-1.32 -4.58,-2.69 -6.86,-4.05 -2.28,-1.35 -4.55,-2.73 -6.8,-4.12 -4.52,-2.78 -9.02,-5.59 -13.49,-8.44 -3.47,-2.19 -6.92,-4.43 -10.36,-6.66 -0.44,-0.29 -0.88,-0.57 -1.31,-0.86 -0.57,-0.36 -1.13,-0.73 -1.7,-1.1 -4.36,-2.86 -8.71,-5.73 -13.03,-8.64 -0.05,-0.04 -0.1,-0.07 -0.15,-0.1 l -1.94,-0.71 -4.55,-1.65 -6.6,-2.44 c -2.2,-0.81 -4.39,-1.67 -6.58,-2.52 -1.86,-0.71 -3.72,-1.44 -5.57,-2.18 -0.13,-0.05 -0.26,-0.1 -0.39,-0.16 -0.2,-0.07 -0.39,-0.15 -0.59,-0.23 0.22,0.06 0.43,0.12 0.65,0.19 0.15,0.03 0.3,0.08 0.44,0.12 1.9,0.54 3.78,1.1 5.67,1.66 2.25,0.68 4.5,1.34 6.74,2.05 l 6.71,2.11 6.59,2.13 0.1,0.03 0.09,0.02 0.11,0.07 1.32,0.84 c 4.04,2.55 8.06,5.14 12.07,7.75 0.89,0.58 1.79,1.17 2.68,1.74 1.14,0.75 2.28,1.5 3.42,2.24 2.4,1.58 4.8,3.17 7.18,4.77 4.41,2.94 8.8,5.92 13.16,8.94 2.18,1.5 4.36,3.02 6.51,4.57 2.17,1.53 4.34,3.06 6.48,4.63 z"
       id="path9"
       style="fill:#0a2360;fill-opacity:1" /><path
       d="m 445.54,204.59 c -0.12,-0.01 -0.25,-0.03 -0.37,-0.04 v 0 c -6.25,-0.73 -12.49,-1.54 -18.72,-2.4 -6.35,-0.88 -12.69,-1.82 -19.03,-2.79 -6.34,-0.99 -12.68,-1.98 -19,-3.04 -4.89,-0.8 -9.78,-1.64 -14.66,-2.51 -1.29,-0.22 -2.59,-0.45 -3.88,-0.69 -0.1,0.11 -0.2,0.22 -0.3,0.33 -2.79,3.09 -5.6,6.15 -8.43,9.2 -3.07,3.24 -6.08,6.52 -9.19,9.72 2.76,-3.51 5.62,-6.92 8.43,-10.38 2.61,-3.14 5.23,-6.28 7.88,-9.4 0.24,-0.28 0.48,-0.57 0.72,-0.85 l 0.28,-0.32 0.44,0.06 c 0.21,0.03 0.42,0.06 0.63,0.09 6.14,0.9 12.27,1.83 18.39,2.81 6.34,0.99 12.66,2.06 18.99,3.12 6.32,1.09 12.63,2.2 18.94,3.37 6.16,1.14 12.31,2.35 18.45,3.63 0.15,0.03 0.29,0.06 0.44,0.09 z"
       id="path10"
       style="fill:#0a2360;fill-opacity:1" /></g><g
     id="g14"
     style="fill:#0a2360;fill-opacity:1"
     transform="matrix(0.37030061,0,0,0.37030061,1.0637083,1.3227577)"><g
       id="g13"
       style="fill:#0a2360;fill-opacity:1"><polygon
         points="83.62,60.81 64.95,74.56 61.37,69.69 61.35,64.91 75.49,54.5 80.04,55.93 "
         id="polygon10"
         style="fill:#0a2360;fill-opacity:1" /><polygon
         points="59.62,63.72 74.86,52.49 69.32,44.97 70.48,44.11 65.98,38 64.82,38.85 59.28,31.32 44.03,42.55 49.57,50.08 48.41,50.93 52.92,57.04 54.08,56.19 "
         id="polygon11"
         style="fill:#0a2360;fill-opacity:1" /><polygon
         points="52.23,27.7 47.5,26.97 43.37,30.02 42.66,34.75 45.66,38.83 55.24,31.78 "
         id="polygon12"
         style="fill:#0a2360;fill-opacity:1" /><rect
         x="65.589996"
         y="13.55"
         width="52.380001"
         height="20.32"
         transform="rotate(-36.37,91.774875,23.705572)"
         id="rect12"
         style="fill:#0a2360;fill-opacity:1" /><rect
         x="0.92000002"
         y="61.169998"
         width="52.380001"
         height="20.32"
         transform="rotate(-36.37,27.112383,71.317978)"
         id="rect13"
         style="fill:#0a2360;fill-opacity:1" /></g><circle
       cx="78.860001"
       cy="72.470001"
       r="2.1099999"
       id="circle13"
       style="fill:#0a2360;fill-opacity:1" /></g><path
     d="M 34.679774,92.320771 24.414282,89.422119 h -0.02652 c 0,0 -0.02652,0 -0.02652,0 l -0.117859,0.01801 -5.719093,-21.244776 11.246666,7.651721 0.04125,0.03002 c 1.623503,5.485232 3.232275,10.982468 4.867564,16.449697 z"
     id="path14"
     style="fill:#0a2360;fill-opacity:1;stroke-width:0.42051" /><polygon
     points="146.85,180.23 180.42,174.53 214.68,168.64 196.69,188.05 "
     id="polygon14"
     style="fill:#0a2360;fill-opacity:1"
     transform="matrix(0.29464675,0,0,0.60013492,-12.363525,-32.657326)" /><path
     d="m 83.331843,71.41207 c -1.196266,1.68638 -2.380739,3.402766 -3.568172,5.107148 -1.364213,1.986447 -2.731371,3.960891 -4.0838,5.977344 -1.358325,2.004451 -2.707801,4.032906 -4.048446,6.073365 -0.674742,1.020229 -1.340644,2.052463 -2.006547,3.090696 -0.430185,0.67215 -0.86037,1.338301 -1.287603,2.022455 -0.0032,-0.006 -0.0056,-0.006 -0.0056,0.006 q 0,0 -0.0032,0 l -0.645277,0.480108 -7.870016,-13.38901 5.87231,-8.960015 h 0.02652 c 0,0 0.07071,-0.07802 0.07071,-0.07802 3.020128,-0.04201 6.040256,-0.06001 9.060384,-0.144029 z"
     id="path15"
     style="fill:#0a2360;fill-opacity:1;stroke-width:0.42051" /><path
     d="m 93.691623,57.813013 -4.670148,6.211397 -4.888191,6.547471 C 82.713085,68.729467 81.284055,66.91106 79.849121,65.110654 79.124289,64.198449 78.396514,63.298247 77.665786,62.410047 77.076493,61.689885 76.4872,60.969722 75.894964,60.261564 Z"
     id="path16"
     style="fill:#0a2360;fill-opacity:1;stroke-width:0.42051" /><path
     d="m 118.78374,90.070265 c -1.80913,-0.768173 -3.62121,-1.494337 -5.43623,-2.178489 -1.85922,-0.702159 -3.71845,-1.368309 -5.58062,-2.022455 -1.86511,-0.636143 -3.72727,-1.278288 -5.59533,-1.872421 -1.80324,-0.588133 -3.609427,-1.146257 -5.418552,-1.68638 -0.262238,-0.342076 -0.527419,-0.696157 -0.789657,-1.044234 -1.181529,-1.566353 -2.36601,-3.120701 -3.556388,-4.651046 l 12.495967,-9.512138 h 0.003 z"
     id="path17"
     style="fill:#0a2360;fill-opacity:1;stroke-width:0.42051" /><path
     class="st0"
     d="m 54.341747,67.819829 c 0.189012,0.04338 0.241508,0.06352 0.340879,0.08757 l 0.229251,0.05859 c 0.175306,0.04561 0.272283,0.07458 0.463416,0.112174 0.174493,0.03759 0.266751,0.06759 0.390462,0.08544 L 124.95148,17.416022 123.69735,15.784078 55.178455,65.499432 33.477791,30.716085 31.769668,31.84773 53.679157,67.661388 c 0.243337,0.06164 0.279236,0.06778 0.475293,0.111566 z"
     id="path18"
     style="fill:#ea0a2a;fill-opacity:1;stroke-width:0.370301"
     sodipodi:nodetypes="ccccccccccccc" /></svg>
