<?xml version="1.0" encoding="UTF-8" standalone="no"?>
<svg
   id="Layer_1"
   version="1.1"
   viewBox="0 0 499.99999 499.99999"
   sodipodi:docname="huira_color_icon.svg"
   inkscape:version="1.4.3 (0d15f75, 2025-12-25)"
   inkscape:export-filename="..\png\huira_color_icon.png"
   inkscape:export-xdpi="96"
   inkscape:export-ydpi="96"
   width="500"
   height="500"
   xmlns:inkscape="http://www.inkscape.org/namespaces/inkscape"
   xmlns:sodipodi="http://sodipodi.sourceforge.net/DTD/sodipodi-0.dtd"
   xmlns="http://www.w3.org/2000/svg"
   xmlns:svg="http://www.w3.org/2000/svg">
  <sodipodi:namedview
     id="namedview18"
     pagecolor="#ffffff"
     bordercolor="#000000"
     borderopacity="0.25"
     inkscape:showpageshadow="2"
     inkscape:pageopacity="0.0"
     inkscape:pagecheckerboard="0"
     inkscape:deskcolor="#d1d1d1"
     inkscape:zoom="1.8905645"
     inkscape:cx="244.63593"
     inkscape:cy="249.13194"
     inkscape:window-width="2095"
     inkscape:window-height="1360"
     inkscape:window-x="1674"
     inkscape:window-y="0"
     inkscape:window-maximized="0"
     inkscape:current-layer="Layer_1"
     inkscape:export-bgcolor="#ffffff00" />
  <!-- Generator: Adobe Illustrator 30.1.0, SVG Export Plug-In . SVG Version: 2.1.1 Build 136)  -->
  <defs
     id="defs1">
    <style
       id="style1">
      .st0 {
        fill: #f15a24;
      }
    </style>
  </defs>
  <rect
     style="fill:#ffffff"
     id="rect1"
     width="518.89264"
     height="521.00842"
     x="-9.4463196"
     y="-10.504211"
     inkscape:label="rect1" />
  <g
     id="g5"
     style="fill:#0a2360;fill-opacity:1"
     transform="translate(12.697782,140.88269)">
    <path
       d="M 119.98,109.55 V 75.67 c 0,-3.35 -0.38,-4.36 -1.33,-4.99 l 0.06,-0.19 h 10.56 l 0.06,0.19 c -0.95,0.63 -1.33,1.64 -1.33,4.99 v 13.08 h 12.45 V 75.67 c 0,-3.35 -0.38,-4.36 -1.33,-4.99 l 0.06,-0.19 h 10.56 l 0.06,0.19 c -0.95,0.63 -1.33,1.64 -1.33,4.99 v 33.88 c 0,3.35 0.38,4.42 1.33,5.06 l -0.06,0.13 h -10.56 l -0.06,-0.13 c 0.95,-0.63 1.33,-1.71 1.33,-5.06 V 95.9 H 128 v 13.65 c 0,3.35 0.38,4.36 1.33,4.99 l -0.06,0.19 h -10.56 l -0.06,-0.19 c 0.95,-0.63 1.33,-1.64 1.33,-4.99 z"
       id="path1"
       style="fill:#0a2360;fill-opacity:1" />
    <path
       d="M 192.35,101.96 V 75.67 c 0,-3.35 -0.38,-4.36 -1.33,-4.99 l 0.06,-0.19 h 10.81 l 0.06,0.19 c -1.01,0.63 -1.39,1.64 -1.39,4.99 v 26.49 c 0,4.42 1.9,6.45 6,6.45 4.1,0 6.07,-2.02 6.07,-6.45 V 75.67 c 0,-3.35 -0.38,-4.36 -1.33,-4.99 l 0.06,-0.19 h 10.11 l 0.06,0.19 c -0.95,0.63 -1.33,1.64 -1.33,4.99 v 26.29 c 0,8.91 -4.8,13.4 -13.65,13.4 -8.85,0 -14.22,-4.42 -14.22,-13.4 z"
       id="path2"
       style="fill:#0a2360;fill-opacity:1" />
    <path
       d="M 264.09,109.55 V 75.67 c 0,-3.35 -0.38,-4.36 -1.39,-4.99 l 0.06,-0.19 h 10.62 l 0.06,0.19 c -0.95,0.63 -1.33,1.64 -1.33,4.99 v 33.88 c 0,3.35 0.38,4.36 1.33,4.99 l -0.06,0.19 h -10.62 l -0.06,-0.19 c 1.01,-0.63 1.39,-1.64 1.39,-4.99 z"
       id="path3"
       style="fill:#0a2360;fill-opacity:1" />
    <path
       d="M 316.87,109.55 V 75.67 c 0,-3.35 -0.38,-4.36 -1.33,-4.99 l 0.06,-0.19 h 13.78 c 10.49,0 15.55,4.3 15.55,12.7 0,5.69 -2.59,9.48 -7.65,11.19 v 0.13 c 3.86,1.33 5.5,4.05 5.88,7.84 l 1.01,8.28 c 0.32,2.65 0.7,3.48 1.45,3.98 l -0.06,0.13 h -9.29 l -1.07,-11.19 c -0.38,-4.11 -2.34,-5.69 -5.5,-5.69 h -4.8 v 11.69 c 0,3.35 0.38,4.36 1.33,4.99 l -0.06,0.19 h -10.56 l -0.06,-0.19 c 0.95,-0.63 1.33,-1.64 1.33,-4.99 z m 12.57,-18.14 c 5.06,0 7.33,-2.46 7.33,-7.4 0,-4.94 -2.34,-7.02 -7.52,-7.02 h -4.36 V 91.4 h 4.55 z"
       id="path4"
       style="fill:#0a2360;fill-opacity:1" />
    <path
       d="m 385.25,110.68 8.79,-36.16 c 0.57,-2.59 0.38,-3.41 -0.38,-3.86 l 0.06,-0.19 h 13.34 l 0.06,0.19 c -0.7,0.44 -0.95,1.26 -0.32,3.86 l 8.85,36.16 c 0.63,2.59 1.01,3.41 1.71,3.86 l -0.06,0.19 h -9.86 l -0.06,-0.19 c 0.76,-0.44 0.95,-1.26 0.38,-3.86 l -1.14,-5.12 h -12.64 l -1.07,5.12 c -0.57,2.59 -0.38,3.41 0.38,3.86 l -0.06,0.19 h -9.67 l -0.06,-0.19 c 0.76,-0.44 1.14,-1.26 1.77,-3.86 z M 405.23,98.8 400.24,75.79 395.31,98.8 Z"
       id="path5"
       style="fill:#0a2360;fill-opacity:1" />
  </g>
  <g
     id="g10"
     style="fill:#0a2360;fill-opacity:1"
     transform="translate(12.697782,140.88269)">
    <polygon
       points="299.31,154.84 298.36,154.91 268.34,172.17 265.27,173.93 265.22,173.96 264.98,174.1 264.89,174.09 264.65,174.05 262.32,173.76 220.46,168.57 217.78,168.24 217.34,168.19 216.97,168.25 214.68,168.64 180.42,174.53 146.85,180.23 144.08,180.7 144.01,180.71 143.35,180.82 143.17,180.85 143.14,180.84 143,180.79 104.83,168.04 104.11,167.8 104.07,167.82 103.43,168.11 100.99,169.23 48.95,192.97 103.86,166.79 104.04,166.7 104.24,166.77 143.29,179.38 180.13,172.84 216.73,166.43 217.17,166.35 217.3,166.32 217.44,166.34 217.85,166.39 264.57,172.03 297.63,153.17 297.82,153.06 298.04,153.04 361.29,149.01 361.49,149 361.67,149.08 398.18,164.95 423.21,159.72 423.38,159.68 423.53,159.76 474.6,184.68 423.26,160.72 399.41,165.95 398.23,166.21 398.04,166.25 398,166.23 397.99,166.23 397.85,166.17 396.48,165.59 361.21,150.66 360.04,150.74 359.94,150.75 299.54,154.83 "
       id="polygon5"
       style="fill:#0a2360;fill-opacity:1" />
    <path
       d="m 445.59,204.36 -46.18,-38.41 -0.95,-0.79 -0.18,-0.15 -0.07,-0.05 -0.11,0.04 -0.19,0.07 -1.43,0.52 -42.52,15.53 -2.52,0.92 -16.92,6.18 -59.53,21.89 h -0.01 l -1.09,0.41 c 0,0 -0.02,-0.01 -0.02,0.01 h -0.01 l -2.19,0.8 -26.71,-22.31 -1.51,-1.26 -22.99,-19.19 -2.49,-2.08 -0.12,-0.1 -0.61,-0.51 -0.51,0.55 -0.13,0.14 -1.92,2.07 -17.99,19.41 -0.15,0.16 -2.13,1.17 -34.3,18.93 -0.41,-0.06 h -0.04 l -34.84,-4.83 h -0.09 c 0,0 -0.09,0 -0.09,0 l -0.4,0.03 -19.41,-35.4 -0.51,-0.92 -0.15,-0.28 -0.26,0.19 -2.92,2.2 -24.78,18.62 -27.65,20.9 -1.67,1.27 2.1,-0.13 75.64,-4.74 35.52,5.01 0.3,0.04 0.26,-0.14 36.39,-19.96 0.5,-0.27 0.13,-0.08 0.11,-0.11 0.6,-0.64 18.98,-20.37 24.77,20.58 1.51,1.25 27.21,22.61 0.41,0.34 0.49,-0.18 63.27,-23.49 18.45,-6.89 2.05,-0.77 42.41,-15.85 H 398 l 47.1,38.27 0.06,0.04 v 0 c 0,0 0.24,0.21 0.24,0.21 l 0.09,0.07 0.1,-0.04 29,-10.09 -29.01,9.67 z M 51,208.48 l 25.82,-19.82 26.61,-20.55 0.49,-0.37 0.07,-0.06 0.03,0.05 0.03,0.05 0.02,0.04 20.15,35.62 z"
       id="path6"
       style="fill:#0a2360;fill-opacity:1" />
    <path
       d="m 361.35,149.83 -1.31,0.91 -15.62,10.85 -15.97,11.02 -0.64,0.44 -0.06,0.04 -0.29,0.2 -0.13,0.09 h -0.66 c 0,0 -0.33,0.01 -0.33,0.01 l -1.56,0.02 -28.81,0.31 c -10.25,0.14 -20.5,0.17 -30.75,0.24 h -0.16 l -0.17,0.13 -19.93,14.93 -0.8,0.6 -0.46,0.84 -7,12.87 -7.63,13.85 -0.59,1.06 -0.89,-0.8 -30.49,-27.34 -0.35,-0.31 -2.34,-0.41 -50.32,-8.66 c 5.21,9.18 10.45,18.33 15.61,27.53 0.19,0.34 0.38,0.67 0.57,1.01 -0.2,-0.34 -0.41,-0.67 -0.61,-1.01 -5.55,-9.11 -11.01,-18.27 -16.52,-27.41 -0.1,-0.17 -0.2,-0.33 -0.3,-0.5 l -0.5,-0.82 0.96,0.15 3.55,0.56 49.84,7.82 0.58,0.09 0.25,0.04 0.18,0.16 0.74,0.66 29.51,26.21 6.99,-12.84 7.25,-13.16 0.38,-0.69 0.1,-0.19 0.17,-0.12 0.61,-0.45 18.87,-14 1.91,-1.42 0.24,-0.17 h 3.87 c 9.2,-0.02 18.41,-0.03 27.62,0.02 l 28.78,0.13 h 1.6 c 0,0 0.67,0.01 0.67,0.01 l 0.49,-0.32 16.59,-10.91 15.85,-10.35 z"
       id="path7"
       style="fill:#0a2360;fill-opacity:1" />
    <path
       d="m 328.76,172.8 -0.51,0.37 -0.11,0.08 -0.46,0.34 c -4.59,3.36 -9.23,6.64 -13.86,9.96 -4.65,3.27 -9.29,6.57 -13.97,9.79 -4.67,3.25 -9.37,6.46 -14.09,9.64 -2.36,1.59 -4.73,3.16 -7.11,4.72 -1.22,0.8 -2.44,1.61 -3.66,2.41 h -0.01 c -1.15,0.76 -2.31,1.52 -3.48,2.26 0.78,-0.62 1.57,-1.23 2.36,-1.84 h 0.01 c 0,0 0.01,-0.02 0.02,-0.01 1.45,-1.14 2.91,-2.25 4.37,-3.37 2.26,-1.73 4.52,-3.45 6.81,-5.15 4.55,-3.4 9.13,-6.78 13.74,-10.12 4.59,-3.36 9.23,-6.65 13.86,-9.96 4.03,-2.84 8.05,-5.7 12.11,-8.51 0.26,-0.18 0.52,-0.36 0.78,-0.54 -0.28,-0.18 -0.55,-0.36 -0.82,-0.55 -4.17,-2.76 -8.31,-5.57 -12.44,-8.39 -2.39,-1.63 -4.76,-3.28 -7.12,-4.94 -1.96,-1.38 -3.93,-2.74 -5.87,-4.15 -0.41,-0.28 -0.81,-0.57 -1.21,-0.86 0.48,0.28 0.96,0.56 1.44,0.85 2.01,1.18 4.01,2.38 6.01,3.58 2.48,1.48 4.95,2.98 7.41,4.5 4.87,3 9.72,6.03 14.54,9.1 0.05,0.03 0.1,0.06 0.15,0.09 l 0.8,0.51 z"
       id="path8"
       style="fill:#0a2360;fill-opacity:1" />
    <path
       d="m 407.08,216.72 c -2.31,-1.32 -4.58,-2.69 -6.86,-4.05 -2.28,-1.35 -4.55,-2.73 -6.8,-4.12 -4.52,-2.78 -9.02,-5.59 -13.49,-8.44 -3.47,-2.19 -6.92,-4.43 -10.36,-6.66 -0.44,-0.29 -0.88,-0.57 -1.31,-0.86 -0.57,-0.36 -1.13,-0.73 -1.7,-1.1 -4.36,-2.86 -8.71,-5.73 -13.03,-8.64 -0.05,-0.04 -0.1,-0.07 -0.15,-0.1 l -1.94,-0.71 -4.55,-1.65 -6.6,-2.44 c -2.2,-0.81 -4.39,-1.67 -6.58,-2.52 -1.86,-0.71 -3.72,-1.44 -5.57,-2.18 -0.13,-0.05 -0.26,-0.1 -0.39,-0.16 -0.2,-0.07 -0.39,-0.15 -0.59,-0.23 0.22,0.06 0.43,0.12 0.65,0.19 0.15,0.03 0.3,0.08 0.44,0.12 1.9,0.54 3.78,1.1 5.67,1.66 2.25,0.68 4.5,1.34 6.74,2.05 l 6.71,2.11 6.59,2.13 0.1,0.03 0.09,0.02 0.11,0.07 1.32,0.84 c 4.04,2.55 8.06,5.14 12.07,7.75 0.89,0.58 1.79,1.17 2.68,1.74 1.14,0.75 2.28,1.5 3.42,2.24 2.4,1.58 4.8,3.17 7.18,4.77 4.41,2.94 8.8,5.92 13.16,8.94 2.18,1.5 4.36,3.02 6.51,4.57 2.17,1.53 4.34,3.06 6.48,4.63 z"
       id="path9"
       style="fill:#0a2360;fill-opacity:1" />
    <path
       d="m 445.54,204.59 c -0.12,-0.01 -0.25,-0.03 -0.37,-0.04 v 0 c -6.25,-0.73 -12.49,-1.54 -18.72,-2.4 -6.35,-0.88 -12.69,-1.82 -19.03,-2.79 -6.34,-0.99 -12.68,-1.98 -19,-3.04 -4.89,-0.8 -9.78,-1.64 -14.66,-2.51 -1.29,-0.22 -2.59,-0.45 -3.88,-0.69 -0.1,0.11 -0.2,0.22 -0.3,0.33 -2.79,3.09 -5.6,6.15 -8.43,9.2 -3.07,3.24 -6.08,6.52 -9.19,9.72 2.76,-3.51 5.62,-6.92 8.43,-10.38 2.61,-3.14 5.23,-6.28 7.88,-9.4 0.24,-0.28 0.48,-0.57 0.72,-0.85 l 0.28,-0.32 0.44,0.06 c 0.21,0.03 0.42,0.06 0.63,0.09 6.14,0.9 12.27,1.83 18.39,2.81 6.34,0.99 12.66,2.06 18.99,3.12 6.32,1.09 12.63,2.2 18.94,3.37 6.16,1.14 12.31,2.35 18.45,3.63 0.15,0.03 0.29,0.06 0.44,0.09 z"
       id="path10"
       style="fill:#0a2360;fill-opacity:1" />
  </g>
  <g
     id="g14"
     style="fill:#0a2360;fill-opacity:1"
     transform="translate(12.697782,140.88269)">
    <g
       id="g13"
       style="fill:#0a2360;fill-opacity:1">
      <polygon
         points="64.95,74.56 61.37,69.69 61.35,64.91 75.49,54.5 80.04,55.93 83.62,60.81 "
         id="polygon10"
         style="fill:#0a2360;fill-opacity:1" />
      <polygon
         points="74.86,52.49 69.32,44.97 70.48,44.11 65.98,38 64.82,38.85 59.28,31.32 44.03,42.55 49.57,50.08 48.41,50.93 52.92,57.04 54.08,56.19 59.62,63.72 "
         id="polygon11"
         style="fill:#0a2360;fill-opacity:1" />
      <polygon
         points="47.5,26.97 43.37,30.02 42.66,34.75 45.66,38.83 55.24,31.78 52.23,27.7 "
         id="polygon12"
         style="fill:#0a2360;fill-opacity:1" />
      <rect
         x="65.589996"
         y="13.55"
         width="52.380001"
         height="20.32"
         transform="rotate(-36.37,91.774875,23.705572)"
         id="rect12"
         style="fill:#0a2360;fill-opacity:1" />
      <rect
         x="0.92000002"
         y="61.169998"
         width="52.380001"
         height="20.32"
         transform="rotate(-36.37,27.112383,71.317978)"
         id="rect13"
         style="fill:#0a2360;fill-opacity:1" />
    </g>
    <circle
       cx="78.860001"
       cy="72.470001"
       r="2.1099999"
       id="circle13"
       style="fill:#0a2360;fill-opacity:1" />
  </g>
  <path
     d="m 172.35778,349.13269 -34.84,-4.83 h -0.09 c 0,0 -0.09,0 -0.09,0 l -0.4,0.03 -19.41,-35.4 38.17,12.75 0.14,0.05 c 5.51,9.14 10.97,18.3 16.52,27.41 z"
     id="path14"
     style="fill:#0a2360;fill-opacity:1" />
  <polygon
     points="196.69,188.05 146.85,180.23 180.42,174.53 214.68,168.64 "
     id="polygon14"
     style="fill:#0a2360;fill-opacity:1"
     transform="translate(12.697782,140.88269)" />
  <path
     d="m 337.47778,314.29269 c -4.06,2.81 -8.08,5.67 -12.11,8.51 -4.63,3.31 -9.27,6.6 -13.86,9.96 -4.61,3.34 -9.19,6.72 -13.74,10.12 -2.29,1.7 -4.55,3.42 -6.81,5.15 -1.46,1.12 -2.92,2.23 -4.37,3.37 -0.01,-0.01 -0.02,-0.01 -0.02,0.01 q 0,0 -0.01,0 l -2.19,0.8 -26.71,-22.31 19.93,-14.93 h 0.09 c 0,0 0.24,-0.13 0.24,-0.13 10.25,-0.07 20.5,-0.1 30.75,-0.24 z"
     id="path15"
     style="fill:#0a2360;fill-opacity:1" />
  <path
     d="m 372.63778,291.63269 -15.85,10.35 -16.59,10.91 c -4.82,-3.07 -9.67,-6.1 -14.54,-9.1 -2.46,-1.52 -4.93,-3.02 -7.41,-4.5 -2,-1.2 -4,-2.4 -6.01,-3.58 z"
     id="path16"
     style="fill:#0a2360;fill-opacity:1" />
  <path
     d="m 457.79778,345.38269 c -6.14,-1.28 -12.29,-2.49 -18.45,-3.63 -6.31,-1.17 -12.62,-2.28 -18.94,-3.37 -6.33,-1.06 -12.65,-2.13 -18.99,-3.12 -6.12,-0.98 -12.25,-1.91 -18.39,-2.81 -0.89,-0.57 -1.79,-1.16 -2.68,-1.74 -4.01,-2.61 -8.03,-5.2 -12.07,-7.75 l 42.41,-15.85 h 0.01 z"
     id="path17"
     style="fill:#0a2360;fill-opacity:1" />
  <path
     class="st0"
     d="m 156.61778,320.15269 c 0.31,-0.02 0.61,-0.05 0.91,-0.08 0.02,0 0.03,0 0.06,0 0.6,-0.13 1.21,-0.21 1.8,-0.33 0.64,-0.12 1.29,-0.25 1.93,-0.36 l 185.94,-135.04 -2.41,-3.2 -187.36,135.98 -58.949999,-96.31 -3.339999,2.21 59.809998,97.43 c 0.52,-0.15 1.06,-0.26 1.6,-0.3 z"
     id="path18"
     style="fill:#ea0a2a;fill-opacity:1" />
</svg>
